<svg xmlns="http://www.w3.org/2000/svg" width="1200" height="800" viewBox="0 0 1200 800">
  <defs>
    <linearGradient id="bg" x1="0" y1="0" x2="1" y2="1">
      <stop offset="0%" stop-color="#f3f5f8"/>
      <stop offset="100%" stop-color="#d6dbe3"/>
    </linearGradient>
    <linearGradient id="muscle" x1="0" y1="0" x2="1" y2="0">
      <stop offset="0%" stop-color="#8b3a35"/>
      <stop offset="100%" stop-color="#c5645b"/>
    </linearGradient>
  </defs>
  <rect width="1200" height="800" fill="url(#bg)"/>
  <text x="40" y="70" font-family="Arial" font-size="38" font-weight="700" fill="#1f242b">02  LAT PULLDOWN</text>
  <text x="40" y="108" font-family="Arial" font-size="26" fill="#3f4954">Back width and scapular control</text>

  <rect x="160" y="150" width="16" height="470" fill="#7f8794"/>
  <rect x="145" y="150" width="210" height="14" rx="6" fill="#6d7682"/>
  <rect x="120" y="182" width="250" height="12" rx="6" fill="#6d7682"/>

  <ellipse cx="560" cy="410" rx="170" ry="190" fill="#c6cdd7" stroke="#7c8694" stroke-width="3"/>
  <ellipse cx="560" cy="255" rx="72" ry="62" fill="#c6cdd7" stroke="#7c8694" stroke-width="3"/>
  <ellipse cx="410" cy="395" rx="58" ry="145" fill="#c6cdd7" stroke="#7c8694" stroke-width="3"/>
  <ellipse cx="710" cy="395" rx="58" ry="145" fill="#c6cdd7" stroke="#7c8694" stroke-width="3"/>

  <path d="M445 355 C500 300, 620 300, 675 355 C640 435, 480 435, 445 355 Z" fill="url(#muscle)" opacity="0.9"/>
  <path d="M505 290 C535 275, 585 275, 615 290 C590 320, 530 320, 505 290 Z" fill="url(#muscle)" opacity="0.85"/>
  <path d="M410 345 C385 370, 382 420, 404 455 C430 430, 437 380, 410 345 Z" fill="url(#muscle)" opacity="0.83"/>
  <path d="M710 345 C736 370, 738 420, 716 455 C690 430, 683 380, 710 345 Z" fill="url(#muscle)" opacity="0.83"/>

  <rect x="350" y="165" width="420" height="14" rx="7" fill="#636d7a"/>
  <line x1="386" y1="179" x2="448" y2="302" stroke="#555f6d" stroke-width="5"/>
  <line x1="734" y1="179" x2="672" y2="302" stroke="#555f6d" stroke-width="5"/>

  <line x1="560" y1="500" x2="560" y2="560" stroke="#d67352" stroke-width="8"/>
  <polygon points="560,574 546,548 574,548" fill="#d67352"/>
  <text x="588" y="560" font-family="Arial" font-size="24" fill="#2c3440">Pull to upper chest</text>

  <line x1="452" y1="350" x2="210" y2="280" stroke="#596474" stroke-width="2"/>
  <text x="40" y="276" font-family="Arial" font-size="28" font-weight="700" fill="#2d3642">Latissimus dorsi</text>

  <line x1="555" y1="290" x2="895" y2="210" stroke="#596474" stroke-width="2"/>
  <text x="905" y="208" font-family="Arial" font-size="28" font-weight="700" fill="#2d3642">Teres major</text>

  <line x1="704" y1="445" x2="920" y2="530" stroke="#596474" stroke-width="2"/>
  <text x="926" y="538" font-family="Arial" font-size="28" font-weight="700" fill="#2d3642">Biceps / brachialis</text>
</svg>
