<svg xmlns="http://www.w3.org/2000/svg" width="1200" height="800" viewBox="0 0 1200 800">
  <defs>
    <linearGradient id="bg" x1="0" y1="0" x2="1" y2="1">
      <stop offset="0%" stop-color="#f2f4f7"/>
      <stop offset="100%" stop-color="#d9dde3"/>
    </linearGradient>
    <linearGradient id="muscle" x1="0" y1="0" x2="1" y2="0">
      <stop offset="0%" stop-color="#9c3b36"/>
      <stop offset="100%" stop-color="#cf6b62"/>
    </linearGradient>
  </defs>
  <rect width="1200" height="800" fill="url(#bg)"/>
  <text x="40" y="70" font-family="Arial" font-size="38" font-weight="700" fill="#1f242b">01  INCLINE BARBELL PRESS</text>
  <text x="40" y="108" font-family="Arial" font-size="26" fill="#3f4954">Upper chest emphasis and pressing path</text>

  <rect x="220" y="500" width="560" height="34" rx="10" fill="#8d96a3"/>
  <rect x="530" y="350" width="320" height="18" rx="9" fill="#727c89" transform="rotate(-20 530 350)"/>
  <circle cx="850" cy="316" r="42" fill="#7d8794"/>
  <circle cx="492" cy="446" r="24" fill="#7d8794"/>

  <ellipse cx="530" cy="430" rx="210" ry="118" fill="#c7ced8" stroke="#7e8896" stroke-width="3"/>
  <ellipse cx="640" cy="410" rx="90" ry="68" fill="#c7ced8" stroke="#7e8896" stroke-width="3"/>
  <ellipse cx="690" cy="545" rx="92" ry="48" fill="#c7ced8" stroke="#7e8896" stroke-width="3"/>
  <ellipse cx="440" cy="560" rx="110" ry="52" fill="#c7ced8" stroke="#7e8896" stroke-width="3"/>

  <path d="M430 408 C510 360, 590 360, 660 402 C590 435, 510 440, 430 408 Z" fill="url(#muscle)" opacity="0.92"/>
  <path d="M640 395 C675 372, 708 372, 730 398 C700 420, 668 424, 640 395 Z" fill="url(#muscle)" opacity="0.88"/>
  <path d="M715 425 C748 447, 762 493, 750 530 C722 511, 705 470, 715 425 Z" fill="url(#muscle)" opacity="0.82"/>

  <line x1="740" y1="280" x2="740" y2="228" stroke="#d67352" stroke-width="8"/>
  <polygon points="740,218 726,240 754,240" fill="#d67352"/>
  <text x="768" y="236" font-family="Arial" font-size="24" fill="#2c3440">Press upward</text>

  <line x1="450" y1="392" x2="260" y2="320" stroke="#596474" stroke-width="2"/>
  <text x="60" y="314" font-family="Arial" font-size="28" font-weight="700" fill="#2d3642">Pectoralis major</text>

  <line x1="676" y1="386" x2="930" y2="300" stroke="#596474" stroke-width="2"/>
  <text x="940" y="298" font-family="Arial" font-size="28" font-weight="700" fill="#2d3642">Anterior deltoid</text>

  <line x1="744" y1="480" x2="940" y2="530" stroke="#596474" stroke-width="2"/>
  <text x="946" y="540" font-family="Arial" font-size="28" font-weight="700" fill="#2d3642">Triceps brachii</text>
</svg>
